# Blender v2.75 (sub 0) OBJ File: 'King.blend'
# www.blender.org
mtllib King.mtl
o Queen_Icosphere
v -0.413638 0.070717 -0.413638
v -0.533356 -0.011582 -0.533356
v -0.310252 0.140116 -0.310252
v -0.536496 -0.050960 -0.536496
v -0.281051 -0.011582 -0.619074
v -0.272181 -0.052348 -0.600036
v -0.558387 -0.033355 -0.558387
v -0.619074 -0.011582 -0.281051
v -0.600036 -0.052348 -0.272181
v -0.226034 0.070717 -0.508149
v -0.508149 0.070717 -0.226033
v -0.474656 0.030740 -0.474656
v -0.368705 0.105161 -0.368705
v -0.365548 0.140116 -0.203502
v -0.203502 0.140116 -0.365548
v -0.313870 -0.062031 -0.313870
v -0.191358 0.105161 -0.461980
v -0.461980 0.105161 -0.191358
v -0.567997 0.030740 -0.248404
v -0.248404 0.030740 -0.567997
v -0.646172 -0.033355 -0.293917
v -0.293917 -0.033355 -0.646172
v -0.111554 0.381259 -0.113048
v -0.198327 0.749588 -0.187647
v -0.202246 0.214232 -0.207065
v -0.114005 1.071808 -0.105391
v -0.140330 0.929560 -0.147594
v 0.413638 0.070717 -0.413638
v 0.533356 -0.011582 -0.533356
v 0.310252 0.140116 -0.310252
v 0.536496 -0.050960 -0.536496
v 0.281051 -0.011582 -0.619074
v 0.272181 -0.052348 -0.600036
v 0.558387 -0.033355 -0.558387
v 0.619074 -0.011582 -0.281051
v 0.600036 -0.052348 -0.272181
v 0.226034 0.070717 -0.508149
v 0.508149 0.070717 -0.226033
v 0.474656 0.030740 -0.474656
v 0.368705 0.105161 -0.368705
v 0.365548 0.140116 -0.203502
v 0.203502 0.140116 -0.365548
v 0.313870 -0.062031 -0.313870
v 0.191358 0.105161 -0.461980
v 0.461980 0.105161 -0.191358
v 0.567997 0.030740 -0.248404
v 0.248404 0.030740 -0.567997
v 0.646172 -0.033355 -0.293917
v 0.293917 -0.033355 -0.646172
v 0.000000 0.068941 -0.575990
v 0.000000 -0.010440 -0.666516
v 0.000000 0.141469 -0.404298
v 0.000000 -0.050712 -0.655716
v 0.000000 -0.033355 -0.694786
v 0.000000 0.030740 -0.627321
v 0.000000 0.105161 -0.528033
v 0.000000 -0.062547 -0.395935
v 0.111554 0.381259 -0.113048
v 0.000000 0.381209 -0.175042
v 0.000000 0.929526 -0.231750
v 0.000000 0.749523 -0.295746
v 0.198327 0.749588 -0.187647
v 0.202246 0.214232 -0.207065
v 0.000000 0.214420 -0.274884
v 0.114005 1.071808 -0.105391
v 0.000000 1.071774 -0.151523
v 0.140330 0.929560 -0.147594
v -0.413638 0.070717 0.413638
v -0.575990 0.068941 0.000000
v -0.533356 -0.011582 0.533356
v -0.666516 -0.010440 0.000000
v -0.404299 0.141469 0.000000
v -0.310252 0.140116 0.310252
v -0.536496 -0.050960 0.536496
v -0.655716 -0.050712 0.000000
v -0.281051 -0.011582 0.619074
v -0.272181 -0.052348 0.600036
v -0.558387 -0.033355 0.558387
v -0.619074 -0.011582 0.281051
v -0.600036 -0.052348 0.272181
v -0.694786 -0.033355 0.000000
v -0.226034 0.070717 0.508149
v -0.508149 0.070717 0.226033
v -0.474656 0.030740 0.474656
v -0.627321 0.030740 0.000000
v -0.528033 0.105161 0.000000
v -0.368705 0.105161 0.368705
v -0.365548 0.140116 0.203502
v -0.203502 0.140116 0.365548
v -0.313870 -0.062031 0.313870
v -0.395935 -0.062547 0.000000
v -0.191358 0.105161 0.461980
v -0.461980 0.105161 0.191358
v -0.567997 0.030740 0.248404
v -0.248404 0.030740 0.567997
v -0.646172 -0.033355 0.293917
v -0.293917 -0.033355 0.646172
v -0.111554 0.381259 0.113048
v -0.173905 0.381209 0.000000
v -0.220859 0.929526 0.000000
v -0.277325 0.749523 0.000000
v -0.198327 0.749588 0.187647
v -0.202246 0.214232 0.207065
v -0.274464 0.214420 0.000000
v -0.114005 1.071808 0.105391
v -0.164135 1.071774 0.000000
v -0.140330 0.929560 0.147594
v 0.413638 0.070717 0.413638
v 0.575990 0.068941 0.000000
v 0.533356 -0.011582 0.533356
v 0.666516 -0.010440 0.000000
v 0.404299 0.141469 0.000000
v 0.310252 0.140116 0.310252
v 0.536496 -0.050960 0.536496
v 0.655716 -0.050712 0.000000
v 0.281051 -0.011582 0.619074
v 0.272181 -0.052348 0.600036
v 0.558387 -0.033355 0.558387
v 0.619074 -0.011582 0.281051
v 0.600036 -0.052348 0.272181
v 0.694786 -0.033355 0.000000
v 0.226034 0.070717 0.508149
v 0.508149 0.070717 0.226033
v 0.474656 0.030740 0.474656
v 0.627321 0.030740 0.000000
v 0.528033 0.105161 0.000000
v 0.368705 0.105161 0.368705
v 0.365548 0.140116 0.203502
v 0.203502 0.140116 0.365548
v 0.313870 -0.062031 0.313870
v 0.395935 -0.062547 0.000000
v 0.191358 0.105161 0.461980
v 0.461980 0.105161 0.191358
v 0.567997 0.030740 0.248404
v 0.248404 0.030740 0.567997
v 0.646172 -0.033355 0.293917
v 0.293917 -0.033355 0.646172
v 0.000000 -0.070292 0.000000
v 0.000000 0.068941 0.575990
v 0.000000 -0.010440 0.666516
v 0.000000 0.141469 0.404298
v 0.000000 -0.050712 0.655716
v 0.000000 -0.033355 0.694786
v 0.000000 0.030740 0.627321
v 0.000000 0.105161 0.528033
v 0.000000 -0.062547 0.395935
v 0.111554 0.381259 0.113048
v 0.000000 0.381209 0.175042
v 0.173905 0.381209 0.000000
v 0.220859 0.929526 0.000000
v 0.000000 0.929526 0.231750
v 0.000000 0.749523 0.295746
v 0.277325 0.749523 0.000000
v 0.198327 0.749588 0.187647
v 0.202246 0.214232 0.207065
v 0.274464 0.214420 0.000000
v 0.000000 0.214420 0.274884
v 0.114005 1.071808 0.105391
v 0.000000 1.071774 0.151523
v 0.164135 1.071774 0.000000
v 0.140330 0.929560 0.147594
v 0.091487 1.294534 0.034666
v -0.037499 1.294534 0.084505
v -0.091487 1.294534 -0.034666
v 0.037499 1.294534 -0.084505
v 0.049147 1.364570 0.016768
v -0.020078 1.364570 0.040593
v -0.049052 1.364570 -0.016375
v 0.020173 1.364570 -0.040200
v 0.077331 1.440682 0.026280
v -0.031630 1.440682 0.063780
v -0.077236 1.440682 -0.025887
v 0.031725 1.440682 -0.063387
v 0.077331 1.527991 0.026280
v -0.031630 1.527991 0.063780
v -0.077236 1.527991 -0.025887
v 0.031725 1.527991 -0.063387
v 0.050272 1.599368 0.017147
v -0.020539 1.599368 0.041518
v -0.050177 1.599368 -0.016754
v 0.020634 1.599368 -0.041125
v 0.031725 1.440682 -0.063387
v -0.077236 1.440682 -0.025887
v -0.077236 1.527991 -0.025887
v 0.031725 1.527991 -0.063387
v 0.077331 1.440682 0.026280
v 0.031725 1.440682 -0.063387
v 0.031725 1.527991 -0.063387
v 0.077331 1.527991 0.026280
v -0.031630 1.440682 0.063780
v 0.077331 1.440682 0.026280
v 0.077331 1.527991 0.026280
v -0.031630 1.527991 0.063780
v -0.077236 1.440682 -0.025887
v -0.031630 1.440682 0.063780
v -0.031630 1.527991 0.063780
v -0.077236 1.527991 -0.025887
v 0.088695 1.452154 0.090406
v 0.008368 1.452154 0.118052
v 0.088695 1.516519 0.090406
v 0.008368 1.516519 0.118052
v -0.091077 1.451281 -0.088804
v -0.008572 1.451281 -0.117200
v -0.091077 1.517392 -0.088804
v -0.008572 1.517392 -0.117200
vn -0.119600 -0.904300 -0.409800
vn -0.377000 -0.923800 -0.066800
vn -0.231500 0.862500 -0.449900
vn -0.132100 0.751000 -0.646900
vn -0.498000 0.846900 -0.186300
vn -0.311100 0.946500 -0.085800
vn -0.186800 0.915200 -0.357200
vn -0.006800 -0.999800 -0.019600
vn -0.019600 -0.999800 -0.006800
vn -0.035800 -0.999300 -0.013900
vn -0.035400 -0.999300 -0.010900
vn -0.045500 -0.999000 -0.003300
vn -0.003300 -0.999000 -0.045500
vn -0.010900 -0.999300 -0.035400
vn -0.013900 -0.999300 -0.035800
vn -0.085800 0.946500 -0.311100
vn -0.449900 0.862500 -0.231500
vn -0.549800 0.817200 -0.172900
vn -0.357200 0.915200 -0.186800
vn -0.172900 0.817200 -0.549800
vn -0.646900 0.751000 -0.132100
vn -0.549600 0.822900 -0.144200
vn -0.440800 0.875000 -0.200100
vn -0.186300 0.846900 -0.498000
vn -0.200100 0.875000 -0.440800
vn -0.144200 0.822900 -0.549600
vn -0.610000 0.785600 -0.103500
vn -0.548000 0.816000 -0.184000
vn -0.409800 -0.904300 -0.119600
vn -0.184000 0.816000 -0.548000
vn -0.103500 0.785600 -0.610000
vn -0.066800 -0.923800 -0.377000
vn -0.229400 0.757700 -0.610900
vn -0.608400 0.758800 -0.232400
vn -0.468600 0.314200 -0.825600
vn -0.462300 -0.277700 -0.842100
vn -0.856300 0.317600 -0.407400
vn -0.001400 1.000000 -0.001400
vn -0.844400 0.311200 -0.436000
vn -0.419500 0.391300 -0.819100
vn -0.872200 -0.266700 -0.410100
vn 0.119600 -0.904300 -0.409800
vn 0.377000 -0.923800 -0.066800
vn 0.231500 0.862500 -0.449900
vn 0.132100 0.751000 -0.646900
vn 0.498000 0.846900 -0.186300
vn 0.311100 0.946500 -0.085800
vn 0.186800 0.915200 -0.357200
vn 0.006800 -0.999800 -0.019600
vn 0.019600 -0.999800 -0.006800
vn 0.035800 -0.999300 -0.013900
vn 0.035400 -0.999300 -0.010900
vn 0.045500 -0.999000 -0.003300
vn 0.003300 -0.999000 -0.045500
vn 0.010900 -0.999300 -0.035400
vn 0.013900 -0.999300 -0.035800
vn 0.085800 0.946500 -0.311100
vn 0.449900 0.862500 -0.231500
vn 0.549800 0.817200 -0.172900
vn 0.357200 0.915200 -0.186800
vn 0.172900 0.817200 -0.549800
vn 0.646900 0.751000 -0.132100
vn 0.549600 0.822900 -0.144200
vn 0.440800 0.875000 -0.200100
vn 0.186300 0.846900 -0.498000
vn 0.200100 0.875000 -0.440800
vn 0.144200 0.822900 -0.549600
vn 0.610000 0.785600 -0.103500
vn 0.548000 0.816000 -0.184000
vn 0.409800 -0.904300 -0.119600
vn 0.184000 0.816000 -0.548000
vn 0.103500 0.785600 -0.610000
vn 0.066800 -0.923800 -0.377000
vn 0.229400 0.757700 -0.610900
vn 0.608400 0.758800 -0.232400
vn 0.468600 0.314200 -0.825600
vn 0.462300 -0.277700 -0.842100
vn 0.856300 0.317600 -0.407400
vn 0.001400 1.000000 -0.001400
vn 0.844400 0.311200 -0.436000
vn 0.419500 0.391300 -0.819100
vn 0.872200 -0.266700 -0.410100
vn -0.119600 -0.904300 0.409800
vn -0.377000 -0.923800 0.066800
vn -0.231500 0.862500 0.449900
vn -0.132100 0.751000 0.646900
vn -0.498000 0.846900 0.186300
vn -0.311100 0.946500 0.085800
vn -0.186800 0.915200 0.357200
vn -0.006800 -0.999800 0.019600
vn -0.019600 -0.999800 0.006800
vn -0.035800 -0.999300 0.013900
vn -0.035400 -0.999300 0.010900
vn -0.045500 -0.999000 0.003300
vn -0.003300 -0.999000 0.045500
vn -0.010900 -0.999300 0.035400
vn -0.013900 -0.999300 0.035800
vn -0.085800 0.946500 0.311100
vn -0.449900 0.862500 0.231500
vn -0.549800 0.817200 0.172900
vn -0.357200 0.915200 0.186800
vn -0.172900 0.817200 0.549800
vn -0.646900 0.751000 0.132100
vn -0.549600 0.822900 0.144200
vn -0.440800 0.875000 0.200100
vn -0.186300 0.846900 0.498000
vn -0.200100 0.875000 0.440800
vn -0.144200 0.822900 0.549600
vn -0.610000 0.785600 0.103500
vn -0.548000 0.816000 0.184000
vn -0.409800 -0.904300 0.119600
vn -0.184000 0.816000 0.548000
vn -0.103500 0.785600 0.610000
vn -0.066800 -0.923800 0.377000
vn -0.229400 0.757700 0.610900
vn -0.608400 0.758800 0.232400
vn -0.468600 0.314200 0.825600
vn -0.462300 -0.277700 0.842100
vn -0.856300 0.317600 0.407400
vn -0.001400 1.000000 0.001400
vn -0.844400 0.311200 0.436000
vn -0.419500 0.391300 0.819100
vn -0.872200 -0.266700 0.410100
vn 0.119600 -0.904300 0.409800
vn 0.377000 -0.923800 0.066800
vn 0.231500 0.862500 0.449900
vn 0.132100 0.751000 0.646900
vn 0.498000 0.846900 0.186300
vn 0.311100 0.946500 0.085800
vn 0.186800 0.915200 0.357200
vn 0.006800 -0.999800 0.019600
vn 0.019600 -0.999800 0.006800
vn 0.035800 -0.999300 0.013900
vn 0.035400 -0.999300 0.010900
vn 0.045500 -0.999000 0.003300
vn 0.003300 -0.999000 0.045500
vn 0.010900 -0.999300 0.035400
vn 0.013900 -0.999300 0.035800
vn 0.085800 0.946500 0.311100
vn 0.449900 0.862500 0.231500
vn 0.549800 0.817200 0.172900
vn 0.357200 0.915200 0.186800
vn 0.172900 0.817200 0.549800
vn 0.646900 0.751000 0.132100
vn 0.549600 0.822900 0.144200
vn 0.440800 0.875000 0.200100
vn 0.186300 0.846900 0.498000
vn 0.200100 0.875000 0.440800
vn 0.144200 0.822900 0.549600
vn 0.610000 0.785600 0.103500
vn 0.548000 0.816000 0.184000
vn 0.409800 -0.904300 0.119600
vn 0.184000 0.816000 0.548000
vn 0.103500 0.785600 0.610000
vn 0.066800 -0.923800 0.377000
vn 0.229400 0.757700 0.610900
vn 0.608400 0.758800 0.232400
vn 0.468600 0.314200 0.825600
vn 0.462300 -0.277700 0.842100
vn 0.856300 0.317600 0.407400
vn 0.001400 1.000000 0.001400
vn 0.844400 0.311200 0.436000
vn 0.419500 0.391300 0.819100
vn 0.872200 -0.266700 0.410100
vn -0.366600 0.210900 0.906200
vn -0.854600 0.335600 0.396200
vn -0.348100 0.319400 -0.881400
vn 0.880500 0.222000 0.418800
vn 0.366600 0.210900 -0.906200
vn -0.880500 0.222000 -0.418800
vn 0.348100 0.319400 0.881400
vn 0.854600 0.335600 -0.396200
vn -0.313900 0.433700 -0.844600
vn 0.314600 0.429500 0.846500
vn 0.820100 0.422200 -0.386300
vn -0.820500 0.421300 0.386400
vn 0.316500 -0.232200 0.919700
vn -0.859800 -0.263700 0.437300
vn -0.316500 -0.232200 -0.919700
vn 0.859800 -0.263700 -0.437300
vn 0.057100 -0.984500 0.166000
vn 0.057100 0.984500 0.166000
vn 0.984700 0.000000 -0.174500
vn 0.325400 0.000000 0.945600
vn 0.316100 0.237400 0.918500
vn -0.858300 0.269500 0.436600
vn -0.316100 0.237400 -0.918500
vn 0.858300 0.269500 -0.436600
vn 0.000000 1.000000 -0.000000
vn 0.800400 0.000000 -0.599400
vn 0.000000 0.000000 1.000000
vn 0.891300 0.000000 -0.453300
vn -0.805000 0.000000 0.593300
vn -0.891300 0.000000 0.453300
vn -0.325400 0.000000 -0.945600
vn -0.976600 0.000000 0.214900
vn -0.053200 0.986600 -0.154500
vn -0.053200 -0.986600 -0.154500
usemtl None
s off
f 22//1 6//1 4//1 7//1
f 21//2 9//2 75//2 81//2
f 10//3 1//3 13//3 17//3
f 20//4 55//4 51//4 5//4
f 19//5 12//5 2//5 8//5
f 18//6 86//6 72//6 14//6
f 17//7 13//7 3//7 15//7
f 138//8 16//8 57//8
f 138//9 91//9 16//9
f 16//10 9//10 4//10
f 16//11 91//11 9//11
f 91//12 75//12 9//12
f 57//13 6//13 53//13
f 57//14 16//14 6//14
f 16//15 4//15 6//15
f 56//16 17//16 15//16 52//16
f 1//17 11//17 18//17 13//17
f 11//18 69//18 86//18 18//18
f 13//19 18//19 14//19 3//19
f 50//20 10//20 17//20 56//20
f 85//21 19//21 8//21 71//21
f 69//22 11//22 19//22 85//22
f 11//23 1//23 12//23 19//23
f 12//24 20//24 5//24 2//24
f 1//25 10//25 20//25 12//25
f 10//26 50//26 55//26 20//26
f 8//27 21//27 81//27 71//27
f 2//28 7//28 21//28 8//28
f 7//29 4//29 9//29 21//29
f 5//30 22//30 7//30 2//30
f 51//31 54//31 22//31 5//31
f 54//32 53//32 6//32 22//32
f 15//33 3//33 25//33 23//33 59//33 64//33 52//33
f 3//34 14//34 72//34 104//34 99//34 23//34 25//34
f 61//35 24//35 27//35 60//35
f 59//36 23//36 24//36 61//36
f 24//37 101//37 100//37 27//37
f 104//38 64//38 25//38
f 27//39 100//39 106//39 26//39
f 60//40 27//40 26//40 66//40
f 23//41 99//41 101//41 24//41
f 49//42 34//42 31//42 33//42
f 48//43 121//43 115//43 36//43
f 37//44 44//44 40//44 28//44
f 47//45 32//45 51//45 55//45
f 46//46 35//46 29//46 39//46
f 45//47 41//47 112//47 126//47
f 44//48 42//48 30//48 40//48
f 138//49 57//49 43//49
f 138//50 43//50 131//50
f 43//51 31//51 36//51
f 43//52 36//52 131//52
f 131//53 36//53 115//53
f 57//54 53//54 33//54
f 57//55 33//55 43//55
f 43//56 33//56 31//56
f 56//57 52//57 42//57 44//57
f 28//58 40//58 45//58 38//58
f 38//59 45//59 126//59 109//59
f 40//60 30//60 41//60 45//60
f 50//61 56//61 44//61 37//61
f 125//62 111//62 35//62 46//62
f 109//63 125//63 46//63 38//63
f 38//64 46//64 39//64 28//64
f 39//65 29//65 32//65 47//65
f 28//66 39//66 47//66 37//66
f 37//67 47//67 55//67 50//67
f 35//68 111//68 121//68 48//68
f 29//69 35//69 48//69 34//69
f 34//70 48//70 36//70 31//70
f 32//71 29//71 34//71 49//71
f 51//72 32//72 49//72 54//72
f 54//73 49//73 33//73 53//73
f 42//74 52//74 64//74 59//74 58//74 63//74 30//74
f 30//75 63//75 58//75 149//75 156//75 112//75 41//75
f 61//76 60//76 67//76 62//76
f 59//77 61//77 62//77 58//77
f 62//78 67//78 150//78 153//78
f 156//79 63//79 64//79
f 67//80 65//80 160//80 150//80
f 60//81 66//81 65//81 67//81
f 58//82 62//82 153//82 149//82
f 97//83 78//83 74//83 77//83
f 96//84 81//84 75//84 80//84
f 82//85 92//85 87//85 68//85
f 95//86 76//86 140//86 144//86
f 94//87 79//87 70//87 84//87
f 93//88 88//88 72//88 86//88
f 92//89 89//89 73//89 87//89
f 138//90 146//90 90//90
f 138//91 90//91 91//91
f 90//92 74//92 80//92
f 90//93 80//93 91//93
f 91//94 80//94 75//94
f 146//95 142//95 77//95
f 146//96 77//96 90//96
f 90//97 77//97 74//97
f 145//98 141//98 89//98 92//98
f 68//99 87//99 93//99 83//99
f 83//100 93//100 86//100 69//100
f 87//101 73//101 88//101 93//101
f 139//102 145//102 92//102 82//102
f 85//103 71//103 79//103 94//103
f 69//104 85//104 94//104 83//104
f 83//105 94//105 84//105 68//105
f 84//106 70//106 76//106 95//106
f 68//107 84//107 95//107 82//107
f 82//108 95//108 144//108 139//108
f 79//109 71//109 81//109 96//109
f 70//110 79//110 96//110 78//110
f 78//111 96//111 80//111 74//111
f 76//112 70//112 78//112 97//112
f 140//113 76//113 97//113 143//113
f 143//114 97//114 77//114 142//114
f 89//115 141//115 157//115 148//115 98//115 103//115 73//115
f 73//116 103//116 98//116 99//116 104//116 72//116 88//116
f 152//117 151//117 107//117 102//117
f 148//118 152//118 102//118 98//118
f 102//119 107//119 100//119 101//119
f 104//120 103//120 157//120
f 107//121 105//121 106//121 100//121
f 151//122 159//122 105//122 107//122
f 98//123 102//123 101//123 99//123
f 137//124 117//124 114//124 118//124
f 136//125 120//125 115//125 121//125
f 122//126 108//126 127//126 132//126
f 135//127 144//127 140//127 116//127
f 134//128 124//128 110//128 119//128
f 133//129 126//129 112//129 128//129
f 132//130 127//130 113//130 129//130
f 138//131 130//131 146//131
f 138//132 131//132 130//132
f 130//133 120//133 114//133
f 130//134 131//134 120//134
f 131//135 115//135 120//135
f 146//136 117//136 142//136
f 146//137 130//137 117//137
f 130//138 114//138 117//138
f 145//139 132//139 129//139 141//139
f 108//140 123//140 133//140 127//140
f 123//141 109//141 126//141 133//141
f 127//142 133//142 128//142 113//142
f 139//143 122//143 132//143 145//143
f 125//144 134//144 119//144 111//144
f 109//145 123//145 134//145 125//145
f 123//146 108//146 124//146 134//146
f 124//147 135//147 116//147 110//147
f 108//148 122//148 135//148 124//148
f 122//149 139//149 144//149 135//149
f 119//150 136//150 121//150 111//150
f 110//151 118//151 136//151 119//151
f 118//152 114//152 120//152 136//152
f 116//153 137//153 118//153 110//153
f 140//154 143//154 137//154 116//154
f 143//155 142//155 117//155 137//155
f 129//156 113//156 155//156 147//156 148//156 157//156 141//156
f 113//157 128//157 112//157 156//157 149//157 147//157 155//157
f 152//158 154//158 161//158 151//158
f 148//159 147//159 154//159 152//159
f 154//160 153//160 150//160 161//160
f 156//161 157//161 155//161
f 161//162 150//162 160//162 158//162
f 151//163 161//163 158//163 159//163
f 147//164 149//164 153//164 154//164
f 105//165 159//165 163//165
f 106//166 105//166 163//166 164//166
f 66//167 26//167 164//167 165//167
f 158//168 160//168 162//168
f 65//169 66//169 165//169
f 26//170 106//170 164//170
f 159//171 158//171 162//171 163//171
f 160//172 65//172 165//172 162//172
f 165//173 164//173 168//173 169//173
f 163//174 162//174 166//174 167//174
f 162//175 165//175 169//175 166//175
f 164//176 163//176 167//176 168//176
f 167//177 166//177 170//177 171//177
f 168//178 167//178 171//178 172//178
f 169//179 168//179 172//179 173//179
f 166//180 169//180 173//180 170//180
f 190//181 191//181 198//181 199//181
f 192//182 193//182 201//182 200//182
f 191//183 192//183 200//183 198//183
f 199//184 198//184 200//184 201//184
f 175//185 174//185 178//185 179//185
f 176//186 175//186 179//186 180//186
f 177//187 176//187 180//187 181//187
f 174//188 177//188 181//188 178//188
f 180//189 179//189 178//189 181//189
f 185//190 182//190 203//190 205//190
f 172//191 183//191 182//191 173//191
f 176//191 184//191 183//191 172//191
f 177//191 185//191 184//191 176//191
f 173//191 182//191 185//191 177//191
f 186//192 187//192 188//192 189//192
f 173//191 187//191 186//191 170//191
f 177//191 188//191 187//191 173//191
f 174//191 189//191 188//191 177//191
f 170//191 186//191 189//191 174//191
f 193//193 190//193 199//193 201//193
f 170//191 191//191 190//191 171//191
f 174//191 192//191 191//191 170//191
f 175//191 193//191 192//191 174//191
f 171//191 190//191 193//191 175//191
f 194//194 195//194 196//194 197//194
f 171//191 195//191 194//191 172//191
f 175//191 196//191 195//191 171//191
f 176//191 197//191 196//191 175//191
f 172//191 194//191 197//191 176//191
f 203//195 202//195 204//195 205//195
f 183//196 184//196 204//196 202//196
f 184//197 185//197 205//197 204//197
f 182//198 183//198 202//198 203//198
