# Blender v2.75 (sub 0) OBJ File: 'Queen.blend'
# www.blender.org
mtllib Queen.mtl
o Cube
v 0.000000 1.889994 -0.002816
v 0.096692 2.037071 0.054871
v -0.096692 2.037070 0.054871
v -0.000000 2.184147 0.112558
v 0.000000 2.044619 -0.112558
v 0.096692 2.191695 -0.054871
v -0.096692 2.191695 -0.054871
v -0.000000 2.338771 0.002816
v -0.413638 0.070716 -0.413638
v -0.533356 -0.011582 -0.533356
v -0.310252 0.140116 -0.310252
v -0.536496 -0.050960 -0.536496
v -0.281051 -0.011582 -0.619074
v -0.272181 -0.052348 -0.600036
v -0.558387 -0.033356 -0.558387
v -0.619074 -0.011582 -0.281051
v -0.600036 -0.052348 -0.272181
v -0.226034 0.070717 -0.508149
v -0.508149 0.070717 -0.226033
v -0.474656 0.030740 -0.474656
v -0.368705 0.105161 -0.368705
v -0.365548 0.140116 -0.203502
v -0.203502 0.140116 -0.365548
v -0.313870 -0.062031 -0.313870
v -0.191358 0.105161 -0.461980
v -0.461980 0.105161 -0.191358
v -0.567997 0.030740 -0.248404
v -0.248404 0.030740 -0.567997
v -0.646172 -0.033356 -0.293917
v -0.293917 -0.033356 -0.646172
v -0.099493 0.381241 -0.102528
v -0.096347 0.819605 -0.100475
v -0.099411 1.122706 -0.104710
v -0.053095 0.577716 -0.042844
v -0.148955 1.004632 -0.156075
v -0.161654 0.214294 -0.164746
v -0.054563 1.327165 -0.048266
v -0.054563 1.488743 -0.048266
v -0.114529 1.897793 -0.097008
v -0.046609 1.664349 -0.039809
v 0.413638 0.070716 -0.413638
v 0.533356 -0.011582 -0.533356
v 0.310252 0.140116 -0.310252
v 0.536496 -0.050960 -0.536496
v 0.281051 -0.011582 -0.619074
v 0.272181 -0.052348 -0.600036
v 0.558387 -0.033356 -0.558387
v 0.619074 -0.011582 -0.281051
v 0.600036 -0.052348 -0.272181
v 0.226034 0.070717 -0.508149
v 0.508149 0.070717 -0.226034
v 0.474656 0.030740 -0.474656
v 0.368705 0.105161 -0.368705
v 0.365548 0.140115 -0.203502
v 0.203502 0.140116 -0.365548
v 0.313870 -0.062031 -0.313870
v 0.191358 0.105161 -0.461980
v 0.461980 0.105161 -0.191358
v 0.567997 0.030740 -0.248404
v 0.248404 0.030740 -0.567997
v 0.646172 -0.033355 -0.293917
v 0.293917 -0.033355 -0.646172
v 0.000000 0.068941 -0.575990
v 0.000000 -0.010440 -0.666516
v -0.000000 0.141469 -0.404298
v 0.000000 -0.050712 -0.655716
v 0.000000 -0.033355 -0.694786
v -0.000000 0.030740 -0.627321
v 0.000000 0.105161 -0.528033
v 0.000000 -0.062547 -0.395935
v 0.099493 0.381241 -0.102527
v 0.000000 0.381218 -0.161573
v 0.096347 0.819605 -0.100475
v -0.000000 0.819596 -0.122513
v 0.099411 1.122706 -0.104710
v -0.000000 0.577700 -0.178593
v 0.053095 0.577716 -0.042844
v 0.000000 1.122712 -0.089873
v 0.000000 1.004606 -0.101921
v 0.148955 1.004632 -0.156075
v 0.161654 0.214294 -0.164746
v 0.000000 0.214389 -0.199107
v 0.054563 1.327165 -0.048266
v 0.000000 1.327170 -0.052892
v 0.054563 1.488743 -0.048266
v 0.000000 1.488748 -0.089873
v 0.114529 1.897793 -0.097008
v 0.000000 1.600532 -0.061744
v 0.046609 1.664349 -0.039809
v -0.413638 0.070717 0.413638
v -0.575990 0.068941 -0.000000
v -0.533356 -0.011582 0.533356
v -0.666516 -0.010440 0.000000
v -0.404299 0.141469 0.000000
v -0.310252 0.140116 0.310252
v -0.536496 -0.050960 0.536496
v -0.655716 -0.050712 0.000000
v -0.281051 -0.011582 0.619074
v -0.272181 -0.052348 0.600036
v -0.558387 -0.033356 0.558387
v -0.619074 -0.011582 0.281051
v -0.600036 -0.052348 0.272180
v -0.694786 -0.033355 -0.000000
v -0.226034 0.070717 0.508149
v -0.508149 0.070717 0.226033
v -0.474656 0.030740 0.474656
v -0.627321 0.030740 -0.000000
v -0.528033 0.105161 -0.000000
v -0.368705 0.105161 0.368705
v -0.365548 0.140115 0.203502
v -0.203502 0.140116 0.365548
v -0.313870 -0.062031 0.313870
v -0.395935 -0.062547 0.000000
v -0.191358 0.105161 0.461980
v -0.461980 0.105161 0.191358
v -0.567997 0.030740 0.248404
v -0.248404 0.030740 0.567997
v -0.646172 -0.033356 0.293917
v -0.293917 -0.033355 0.646172
v -0.099493 0.381241 0.102527
v -0.152429 0.381218 -0.000000
v -0.096347 0.819605 0.100475
v -0.116105 0.819596 -0.000000
v -0.180011 0.577700 -0.000000
v -0.099411 1.122706 0.104710
v -0.053095 0.577716 0.042844
v -0.086109 1.122712 -0.000000
v -0.110987 1.004606 0.000000
v -0.148955 1.004632 0.156075
v -0.161654 0.214294 0.164746
v -0.198243 0.214389 -0.000000
v -0.054563 1.327165 0.048266
v -0.055788 1.327170 -0.000000
v -0.054563 1.488743 0.048266
v -0.086109 1.488748 0.000000
v -0.114529 1.897793 0.097008
v -0.052424 1.573756 -0.000000
v -0.046609 1.664349 0.039809
v 0.413638 0.070717 0.413638
v 0.575990 0.068941 -0.000000
v 0.533356 -0.011582 0.533356
v 0.666516 -0.010440 -0.000000
v 0.404299 0.141469 -0.000000
v 0.310252 0.140116 0.310252
v 0.536496 -0.050960 0.536496
v 0.655716 -0.050712 -0.000000
v 0.281051 -0.011582 0.619074
v 0.272181 -0.052348 0.600036
v 0.558387 -0.033355 0.558387
v 0.619074 -0.011582 0.281051
v 0.600036 -0.052348 0.272181
v 0.694786 -0.033355 -0.000000
v 0.226033 0.070717 0.508149
v 0.508149 0.070717 0.226033
v 0.474656 0.030740 0.474656
v 0.627321 0.030740 -0.000000
v 0.528033 0.105161 -0.000000
v 0.368705 0.105161 0.368705
v 0.365548 0.140116 0.203501
v 0.203502 0.140116 0.365548
v 0.313870 -0.062031 0.313870
v 0.395936 -0.062547 0.000000
v 0.191358 0.105161 0.461980
v 0.461980 0.105161 0.191358
v 0.567997 0.030740 0.248404
v 0.248404 0.030740 0.567997
v 0.646172 -0.033356 0.293917
v 0.293917 -0.033356 0.646172
v 0.000000 -0.070292 -0.000000
v 0.000000 0.068941 0.575990
v 0.000000 -0.010440 0.666516
v 0.000000 0.141469 0.404298
v 0.000000 -0.050712 0.655716
v 0.000000 -0.033355 0.694786
v 0.000000 0.030740 0.627321
v 0.000000 0.105161 0.528033
v -0.000000 -0.062547 0.395935
v 0.099493 0.381241 0.102527
v 0.000000 0.381218 0.161573
v 0.152429 0.381218 -0.000000
v 0.096347 0.819605 0.100475
v 0.000000 0.819596 0.122513
v 0.116105 0.819596 -0.000000
v 0.180011 0.577700 -0.000000
v 0.099411 1.122706 0.104710
v 0.000000 0.577700 0.178593
v 0.053095 0.577716 0.042844
v -0.000000 1.122712 0.089873
v 0.086109 1.122712 -0.000000
v 0.110987 1.004606 -0.000000
v -0.000000 1.004606 0.101921
v 0.148955 1.004632 0.156075
v 0.161654 0.214294 0.164746
v 0.198243 0.214389 -0.000000
v 0.000000 0.214389 0.199107
v 0.054563 1.327165 0.048266
v 0.000000 1.327170 0.052892
v 0.055788 1.327170 0.000000
v 0.054563 1.488743 0.048266
v 0.000000 1.488748 0.089873
v 0.086109 1.488748 -0.000000
v 0.114529 1.897793 0.097008
v 0.000000 1.600532 0.061744
v 0.052424 1.573756 -0.000000
v 0.000000 1.591728 -0.000000
v 0.046609 1.664349 0.039809
vn 0.000000 -0.365100 0.931000
vn -0.807100 0.341700 0.481500
vn -0.000000 0.365100 -0.931000
vn 0.807100 -0.341700 -0.481500
vn -0.807100 -0.341700 -0.481500
vn 0.807100 0.341700 0.481500
vn -0.119600 -0.904300 -0.409800
vn -0.377000 -0.923800 -0.066800
vn -0.231500 0.862500 -0.449900
vn -0.132100 0.751000 -0.646900
vn -0.498000 0.846900 -0.186300
vn -0.311100 0.946500 -0.085800
vn -0.186800 0.915200 -0.357200
vn -0.006800 -0.999800 -0.019600
vn -0.019600 -0.999800 -0.006800
vn -0.035800 -0.999300 -0.013900
vn -0.035400 -0.999300 -0.010900
vn -0.045500 -0.999000 -0.003300
vn -0.003300 -0.999000 -0.045500
vn -0.010900 -0.999300 -0.035400
vn -0.013900 -0.999300 -0.035800
vn -0.085800 0.946500 -0.311100
vn -0.449900 0.862500 -0.231500
vn -0.549800 0.817200 -0.172900
vn -0.357200 0.915200 -0.186800
vn -0.172900 0.817200 -0.549800
vn -0.646900 0.751000 -0.132100
vn -0.549600 0.822900 -0.144200
vn -0.440800 0.875000 -0.200100
vn -0.186300 0.846900 -0.498000
vn -0.200100 0.875000 -0.440800
vn -0.144200 0.822900 -0.549600
vn -0.610000 0.785600 -0.103500
vn -0.548000 0.816000 -0.184000
vn -0.409800 -0.904300 -0.119600
vn -0.184000 0.816000 -0.548000
vn -0.103500 0.785600 -0.610000
vn -0.066800 -0.923800 -0.377000
vn -0.179000 0.813900 -0.552700
vn -0.724400 -0.067000 -0.686100
vn -0.550600 0.816800 -0.172200
vn -0.697800 -0.055300 -0.714100
vn -0.621800 0.146600 -0.769300
vn -0.982400 0.169900 0.077500
vn -0.777300 0.157900 -0.608900
vn 0.064600 0.215500 -0.974400
vn 0.262300 0.198500 -0.944300
vn -0.948000 0.258200 0.186400
vn -0.990700 -0.116600 0.070300
vn 0.129400 -0.075100 -0.988700
vn 0.000700 -1.000000 0.000700
vn -0.943200 -0.088500 -0.320200
vn -0.387900 -0.104800 -0.915700
vn -0.992300 -0.041300 0.116700
vn -0.132900 -0.054500 -0.989600
vn 0.749200 0.355000 0.559200
vn 0.452500 0.334200 0.826700
vn -0.139100 0.405900 0.903300
vn 0.818000 0.569500 0.081200
vn 0.119600 -0.904300 -0.409800
vn 0.377000 -0.923800 -0.066800
vn 0.231500 0.862500 -0.449900
vn 0.132100 0.751000 -0.646900
vn 0.498000 0.846900 -0.186300
vn 0.311100 0.946500 -0.085800
vn 0.186800 0.915200 -0.357200
vn 0.006800 -0.999800 -0.019600
vn 0.019600 -0.999800 -0.006800
vn 0.035800 -0.999300 -0.013900
vn 0.035400 -0.999300 -0.010900
vn 0.045500 -0.999000 -0.003300
vn 0.003300 -0.999000 -0.045500
vn 0.010900 -0.999300 -0.035400
vn 0.013900 -0.999300 -0.035800
vn 0.085800 0.946500 -0.311100
vn 0.449900 0.862500 -0.231500
vn 0.549800 0.817200 -0.172900
vn 0.357200 0.915200 -0.186800
vn 0.172900 0.817200 -0.549800
vn 0.646900 0.751000 -0.132100
vn 0.549600 0.822900 -0.144200
vn 0.440800 0.875000 -0.200100
vn 0.186300 0.846900 -0.498000
vn 0.200100 0.875000 -0.440800
vn 0.144200 0.822900 -0.549600
vn 0.610000 0.785600 -0.103500
vn 0.548000 0.816000 -0.184000
vn 0.409800 -0.904300 -0.119600
vn 0.184000 0.816000 -0.548000
vn 0.103500 0.785600 -0.610000
vn 0.066800 -0.923800 -0.377000
vn 0.179000 0.813900 -0.552700
vn 0.724400 -0.067000 -0.686100
vn 0.550600 0.816800 -0.172200
vn 0.697800 -0.055300 -0.714100
vn 0.621800 0.146600 -0.769300
vn 0.982400 0.169900 0.077500
vn 0.777300 0.157900 -0.608900
vn -0.064600 0.215500 -0.974400
vn -0.262300 0.198500 -0.944300
vn 0.948000 0.258200 0.186400
vn 0.990700 -0.116600 0.070300
vn -0.129400 -0.075100 -0.988700
vn -0.000700 -1.000000 0.000700
vn 0.943200 -0.088500 -0.320200
vn 0.387900 -0.104800 -0.915700
vn 0.992300 -0.041300 0.116700
vn 0.132900 -0.054500 -0.989600
vn -0.749200 0.355000 0.559200
vn -0.452500 0.334200 0.826700
vn 0.139100 0.405900 0.903300
vn -0.818000 0.569500 0.081200
vn -0.119600 -0.904300 0.409800
vn -0.377000 -0.923800 0.066800
vn -0.231500 0.862500 0.449900
vn -0.132100 0.751000 0.646900
vn -0.498000 0.846900 0.186300
vn -0.311100 0.946500 0.085800
vn -0.186800 0.915200 0.357200
vn -0.006800 -0.999800 0.019600
vn -0.019600 -0.999800 0.006800
vn -0.035800 -0.999300 0.013900
vn -0.035400 -0.999300 0.010900
vn -0.045500 -0.999000 0.003300
vn -0.003300 -0.999000 0.045500
vn -0.010900 -0.999300 0.035400
vn -0.013900 -0.999300 0.035800
vn -0.085800 0.946500 0.311100
vn -0.449900 0.862500 0.231500
vn -0.549800 0.817200 0.172900
vn -0.357200 0.915200 0.186800
vn -0.172900 0.817200 0.549800
vn -0.646900 0.751000 0.132100
vn -0.549600 0.822900 0.144200
vn -0.440800 0.875000 0.200100
vn -0.186300 0.846900 0.498000
vn -0.200100 0.875000 0.440800
vn -0.144200 0.822900 0.549600
vn -0.610000 0.785600 0.103500
vn -0.548000 0.816000 0.184000
vn -0.409800 -0.904300 0.119600
vn -0.184000 0.816000 0.548000
vn -0.103500 0.785600 0.610000
vn -0.066800 -0.923800 0.377000
vn -0.179000 0.813900 0.552700
vn -0.724400 -0.067000 0.686100
vn -0.550600 0.816800 0.172200
vn -0.697800 -0.055300 0.714100
vn -0.621800 0.146600 0.769300
vn -0.982400 0.169900 -0.077500
vn -0.777300 0.157900 0.608900
vn 0.064600 0.215500 0.974400
vn 0.262300 0.198500 0.944300
vn -0.948000 0.258200 -0.186400
vn -0.990700 -0.116600 -0.070300
vn 0.129400 -0.075100 0.988700
vn 0.000700 -1.000000 -0.000700
vn -0.943200 -0.088500 0.320200
vn -0.387900 -0.104800 0.915700
vn -0.992300 -0.041300 -0.116700
vn -0.132900 -0.054500 0.989600
vn 0.749200 0.355000 -0.559200
vn 0.452500 0.334200 -0.826700
vn -0.139100 0.405900 -0.903300
vn 0.818000 0.569500 -0.081200
vn 0.119600 -0.904300 0.409800
vn 0.377000 -0.923800 0.066800
vn 0.231500 0.862500 0.449900
vn 0.132100 0.751000 0.646900
vn 0.498000 0.846900 0.186300
vn 0.311100 0.946500 0.085800
vn 0.186800 0.915200 0.357200
vn 0.006800 -0.999800 0.019600
vn 0.019600 -0.999800 0.006800
vn 0.035800 -0.999300 0.013900
vn 0.035400 -0.999300 0.010900
vn 0.045500 -0.999000 0.003300
vn 0.003300 -0.999000 0.045500
vn 0.010900 -0.999300 0.035400
vn 0.013900 -0.999300 0.035800
vn 0.085800 0.946500 0.311100
vn 0.449900 0.862500 0.231500
vn 0.549800 0.817200 0.172900
vn 0.357200 0.915200 0.186800
vn 0.172900 0.817200 0.549800
vn 0.646900 0.751000 0.132100
vn 0.549600 0.822900 0.144200
vn 0.440800 0.875000 0.200100
vn 0.186300 0.846900 0.498000
vn 0.200100 0.875000 0.440800
vn 0.144200 0.822900 0.549600
vn 0.610000 0.785600 0.103500
vn 0.548000 0.816000 0.184000
vn 0.409800 -0.904300 0.119600
vn 0.184000 0.816000 0.548000
vn 0.103500 0.785600 0.610000
vn 0.066800 -0.923800 0.377000
vn 0.179000 0.813900 0.552700
vn 0.724400 -0.067000 0.686100
vn 0.550600 0.816800 0.172200
vn 0.697800 -0.055300 0.714100
vn 0.621800 0.146600 0.769300
vn 0.982400 0.169900 -0.077500
vn 0.777300 0.157900 0.608900
vn -0.064600 0.215500 0.974400
vn -0.262300 0.198500 0.944300
vn 0.948000 0.258200 -0.186400
vn 0.990700 -0.116600 -0.070300
vn -0.129400 -0.075100 0.988700
vn -0.000700 -1.000000 -0.000700
vn 0.943200 -0.088500 0.320200
vn 0.387900 -0.104800 0.915700
vn 0.992300 -0.041300 -0.116700
vn 0.132900 -0.054500 0.989600
vn -0.749200 0.355000 -0.559200
vn -0.452500 0.334200 -0.826700
vn 0.139100 0.405900 -0.903300
vn -0.818000 0.569500 -0.081200
usemtl None
s off
f 2//1 4//1 3//1 1//1
f 4//2 8//2 7//2 3//2
f 8//3 6//3 5//3 7//3
f 6//4 2//4 1//4 5//4
f 1//5 3//5 7//5 5//5
f 6//6 8//6 4//6 2//6
f 30//7 14//7 12//7 15//7
f 29//8 17//8 97//8 103//8
f 18//9 9//9 21//9 25//9
f 28//10 68//10 64//10 13//10
f 27//11 20//11 10//11 16//11
f 26//12 108//12 94//12 22//12
f 25//13 21//13 11//13 23//13
f 169//14 24//14 70//14
f 169//15 113//15 24//15
f 24//16 17//16 12//16
f 24//17 113//17 17//17
f 113//18 97//18 17//18
f 70//19 14//19 66//19
f 70//20 24//20 14//20
f 24//21 12//21 14//21
f 69//22 25//22 23//22 65//22
f 9//23 19//23 26//23 21//23
f 19//24 91//24 108//24 26//24
f 21//25 26//25 22//25 11//25
f 63//26 18//26 25//26 69//26
f 107//27 27//27 16//27 93//27
f 91//28 19//28 27//28 107//28
f 19//29 9//29 20//29 27//29
f 20//30 28//30 13//30 10//30
f 9//31 18//31 28//31 20//31
f 18//32 63//32 68//32 28//32
f 16//33 29//33 103//33 93//33
f 10//34 15//34 29//34 16//34
f 15//35 12//35 17//35 29//35
f 13//36 30//36 15//36 10//36
f 64//37 67//37 30//37 13//37
f 67//38 66//38 14//38 30//38
f 23//39 11//39 36//39 31//39 72//39 82//39 65//39
f 76//40 34//40 32//40 74//40
f 11//41 22//41 94//41 131//41 121//41 31//41 36//41
f 34//42 124//42 123//42 32//42
f 31//43 121//43 124//43 34//43
f 33//44 127//44 133//44 37//44
f 72//45 31//45 34//45 76//45
f 78//46 33//46 37//46 84//46
f 79//47 35//47 33//47 78//47
f 35//48 128//48 127//48 33//48
f 32//49 123//49 128//49 35//49
f 74//50 32//50 35//50 79//50
f 131//51 36//51 82//51
f 37//52 133//52 135//52 38//52
f 84//53 37//53 38//53 86//53
f 38//54 135//54 137//54 39//54
f 86//55 38//55 39//55 88//55
f 88//56 39//56 40//56
f 39//57 137//57 40//57
f 40//58 137//58 205//58
f 40//59 205//59 88//59
f 62//60 47//60 44//60 46//60
f 61//61 152//61 146//61 49//61
f 50//62 57//62 53//62 41//62
f 60//63 45//63 64//63 68//63
f 59//64 48//64 42//64 52//64
f 58//65 54//65 143//65 157//65
f 57//66 55//66 43//66 53//66
f 169//67 70//67 56//67
f 169//68 56//68 162//68
f 56//69 44//69 49//69
f 56//70 49//70 162//70
f 162//71 49//71 146//71
f 70//72 66//72 46//72
f 70//73 46//73 56//73
f 56//74 46//74 44//74
f 69//75 65//75 55//75 57//75
f 41//76 53//76 58//76 51//76
f 51//77 58//77 157//77 140//77
f 53//78 43//78 54//78 58//78
f 63//79 69//79 57//79 50//79
f 156//80 142//80 48//80 59//80
f 140//81 156//81 59//81 51//81
f 51//82 59//82 52//82 41//82
f 52//83 42//83 45//83 60//83
f 41//84 52//84 60//84 50//84
f 50//85 60//85 68//85 63//85
f 48//86 142//86 152//86 61//86
f 42//87 48//87 61//87 47//87
f 47//88 61//88 49//88 44//88
f 45//89 42//89 47//89 62//89
f 64//90 45//90 62//90 67//90
f 67//91 62//91 46//91 66//91
f 55//92 65//92 82//92 72//92 71//92 81//92 43//92
f 76//93 74//93 73//93 77//93
f 43//94 81//94 71//94 180//94 194//94 143//94 54//94
f 77//95 73//95 183//95 184//95
f 71//96 77//96 184//96 180//96
f 75//97 83//97 198//97 189//97
f 72//98 76//98 77//98 71//98
f 78//99 84//99 83//99 75//99
f 79//100 78//100 75//100 80//100
f 80//101 75//101 189//101 190//101
f 73//102 80//102 190//102 183//102
f 74//103 79//103 80//103 73//103
f 194//104 82//104 81//104
f 83//105 85//105 201//105 198//105
f 84//106 86//106 85//106 83//106
f 85//107 87//107 204//107 201//107
f 86//108 88//108 87//108 85//108
f 88//109 89//109 87//109
f 87//110 89//110 204//110
f 89//111 205//111 204//111
f 89//112 88//112 205//112
f 119//113 100//113 96//113 99//113
f 118//114 103//114 97//114 102//114
f 104//115 114//115 109//115 90//115
f 117//116 98//116 171//116 175//116
f 116//117 101//117 92//117 106//117
f 115//118 110//118 94//118 108//118
f 114//119 111//119 95//119 109//119
f 169//120 177//120 112//120
f 169//121 112//121 113//121
f 112//122 96//122 102//122
f 112//123 102//123 113//123
f 113//124 102//124 97//124
f 177//125 173//125 99//125
f 177//126 99//126 112//126
f 112//127 99//127 96//127
f 176//128 172//128 111//128 114//128
f 90//129 109//129 115//129 105//129
f 105//130 115//130 108//130 91//130
f 109//131 95//131 110//131 115//131
f 170//132 176//132 114//132 104//132
f 107//133 93//133 101//133 116//133
f 91//134 107//134 116//134 105//134
f 105//135 116//135 106//135 90//135
f 106//136 92//136 98//136 117//136
f 90//137 106//137 117//137 104//137
f 104//138 117//138 175//138 170//138
f 101//139 93//139 103//139 118//139
f 92//140 101//140 118//140 100//140
f 100//141 118//141 102//141 96//141
f 98//142 92//142 100//142 119//142
f 171//143 98//143 119//143 174//143
f 174//144 119//144 99//144 173//144
f 111//145 172//145 195//145 179//145 120//145 130//145 95//145
f 186//146 182//146 122//146 126//146
f 95//147 130//147 120//147 121//147 131//147 94//147 110//147
f 126//148 122//148 123//148 124//148
f 120//149 126//149 124//149 121//149
f 125//150 132//150 133//150 127//150
f 179//151 186//151 126//151 120//151
f 188//152 197//152 132//152 125//152
f 191//153 188//153 125//153 129//153
f 129//154 125//154 127//154 128//154
f 122//155 129//155 128//155 123//155
f 182//156 191//156 129//156 122//156
f 131//157 195//157 130//157
f 132//158 134//158 135//158 133//158
f 197//159 200//159 134//159 132//159
f 134//160 136//160 137//160 135//160
f 200//161 203//161 136//161 134//161
f 203//162 138//162 136//162
f 136//163 138//163 137//163
f 138//164 205//164 137//164
f 138//165 203//165 205//165
f 168//166 148//166 145//166 149//166
f 167//167 151//167 146//167 152//167
f 153//168 139//168 158//168 163//168
f 166//169 175//169 171//169 147//169
f 165//170 155//170 141//170 150//170
f 164//171 157//171 143//171 159//171
f 163//172 158//172 144//172 160//172
f 169//173 161//173 177//173
f 169//174 162//174 161//174
f 161//175 151//175 145//175
f 161//176 162//176 151//176
f 162//177 146//177 151//177
f 177//178 148//178 173//178
f 177//179 161//179 148//179
f 161//180 145//180 148//180
f 176//181 163//181 160//181 172//181
f 139//182 154//182 164//182 158//182
f 154//183 140//183 157//183 164//183
f 158//184 164//184 159//184 144//184
f 170//185 153//185 163//185 176//185
f 156//186 165//186 150//186 142//186
f 140//187 154//187 165//187 156//187
f 154//188 139//188 155//188 165//188
f 155//189 166//189 147//189 141//189
f 139//190 153//190 166//190 155//190
f 153//191 170//191 175//191 166//191
f 150//192 167//192 152//192 142//192
f 141//193 149//193 167//193 150//193
f 149//194 145//194 151//194 167//194
f 147//195 168//195 149//195 141//195
f 171//196 174//196 168//196 147//196
f 174//197 173//197 148//197 168//197
f 160//198 144//198 193//198 178//198 179//198 195//198 172//198
f 186//199 187//199 181//199 182//199
f 144//200 159//200 143//200 194//200 180//200 178//200 193//200
f 187//201 184//201 183//201 181//201
f 178//202 180//202 184//202 187//202
f 185//203 189//203 198//203 196//203
f 179//204 178//204 187//204 186//204
f 188//205 185//205 196//205 197//205
f 191//206 192//206 185//206 188//206
f 192//207 190//207 189//207 185//207
f 181//208 183//208 190//208 192//208
f 182//209 181//209 192//209 191//209
f 194//210 193//210 195//210
f 196//211 198//211 201//211 199//211
f 197//212 196//212 199//212 200//212
f 199//213 201//213 204//213 202//213
f 200//214 199//214 202//214 203//214
f 203//215 202//215 206//215
f 202//216 204//216 206//216
f 206//217 204//217 205//217
f 206//218 205//218 203//218
