# Blender v2.75 (sub 0) OBJ File: 'Rook.blend'
# www.blender.org
mtllib Rook.mtl
o Rook_Icosphere
v -0.413638 0.070717 -0.413638
v -0.533356 -0.011582 -0.533356
v -0.323000 0.139946 -0.323000
v -0.536496 -0.050960 -0.536496
v -0.281051 -0.011582 -0.619074
v -0.272181 -0.052348 -0.600036
v -0.558387 -0.033355 -0.558387
v -0.619074 -0.011582 -0.281051
v -0.600036 -0.052348 -0.272181
v -0.226034 0.070717 -0.508149
v -0.508149 0.070717 -0.226033
v -0.474656 0.030740 -0.474656
v -0.368705 0.105161 -0.368705
v -0.395630 0.139946 -0.182784
v -0.182784 0.139946 -0.395630
v -0.313870 -0.062031 -0.313870
v -0.191358 0.105161 -0.461980
v -0.461980 0.105161 -0.191358
v -0.567997 0.030740 -0.248404
v -0.248404 0.030740 -0.567997
v -0.646172 -0.033355 -0.293917
v -0.293917 -0.033355 -0.646172
v -0.184803 0.615181 -0.199191
v -0.226976 0.808724 -0.242439
v -0.315227 1.026326 -0.315227
v -0.311262 1.164971 -0.311262
v -0.168231 0.378146 -0.172744
v 0.413638 0.070717 -0.413638
v 0.533356 -0.011582 -0.533356
v 0.323000 0.139946 -0.323000
v 0.536496 -0.050960 -0.536496
v 0.281051 -0.011582 -0.619074
v 0.272181 -0.052348 -0.600036
v 0.558387 -0.033355 -0.558387
v 0.619074 -0.011582 -0.281051
v 0.600036 -0.052348 -0.272181
v 0.226034 0.070717 -0.508149
v 0.508149 0.070717 -0.226033
v 0.474656 0.030740 -0.474656
v 0.368705 0.105161 -0.368705
v 0.395630 0.139946 -0.182784
v 0.182784 0.139946 -0.395630
v 0.313870 -0.062031 -0.313870
v 0.191358 0.105161 -0.461980
v 0.461980 0.105161 -0.191358
v 0.567997 0.030740 -0.248404
v 0.248404 0.030740 -0.567997
v 0.646172 -0.033355 -0.293917
v 0.293917 -0.033355 -0.646172
v 0.000000 0.068941 -0.575990
v 0.000000 -0.010440 -0.666516
v 0.000000 0.141724 -0.446528
v 0.000000 -0.050712 -0.655716
v 0.000000 -0.033355 -0.694786
v 0.000000 0.030740 -0.627321
v 0.000000 0.105161 -0.528033
v 0.000000 -0.062547 -0.395935
v 0.184803 0.615181 -0.199191
v 0.000000 0.615537 -0.275938
v 0.226976 0.808724 -0.242439
v 0.315227 1.026326 -0.315227
v 0.000000 0.809360 -0.322324
v 0.311262 1.164971 -0.311262
v 0.000000 1.028103 -0.424693
v 0.000000 1.883871 -0.434790
v 0.000000 1.123544 -0.095720
v 0.168231 0.378146 -0.172744
v 0.000000 0.378339 -0.242332
v -0.413638 0.070717 0.413638
v -0.575990 0.068941 0.000000
v -0.533356 -0.011582 0.533356
v -0.666516 -0.010440 0.000000
v -0.446529 0.141724 0.000000
v -0.323000 0.139946 0.323000
v -0.536496 -0.050960 0.536496
v -0.655716 -0.050712 0.000000
v -0.281051 -0.011582 0.619074
v -0.272181 -0.052348 0.600036
v -0.558387 -0.033355 0.558387
v -0.619074 -0.011582 0.281051
v -0.600036 -0.052348 0.272181
v -0.694786 -0.033355 0.000000
v -0.226034 0.070717 0.508149
v -0.508149 0.070717 0.226033
v -0.474656 0.030740 0.474656
v -0.627321 0.030740 0.000000
v -0.528033 0.105161 0.000000
v -0.368705 0.105161 0.368705
v -0.395630 0.139946 0.182784
v -0.182784 0.139946 0.395630
v -0.313870 -0.062031 0.313870
v -0.395935 -0.062547 0.000000
v -0.191358 0.105161 0.461980
v -0.461980 0.105161 0.191358
v -0.567997 0.030740 0.248404
v -0.248404 0.030740 0.567997
v -0.646172 -0.033355 0.293917
v -0.293917 -0.033355 0.646172
v -0.184803 0.615181 0.199191
v -0.275938 0.615537 0.000000
v -0.226976 0.808724 0.242439
v -0.315227 1.026326 0.315227
v -0.322324 0.809360 0.000000
v -0.311262 1.164971 0.311262
v -0.479995 1.028103 0.000000
v -0.288367 1.678568 0.000000
v -0.126889 1.120250 0.000000
v -0.168231 0.378146 0.172744
v -0.242332 0.378339 0.000000
v 0.413638 0.070717 0.413638
v 0.575990 0.068941 0.000000
v 0.533356 -0.011582 0.533356
v 0.666516 -0.010440 0.000000
v 0.446529 0.141724 0.000000
v 0.323000 0.139946 0.323000
v 0.536496 -0.050960 0.536496
v 0.655716 -0.050712 0.000000
v 0.281051 -0.011582 0.619074
v 0.272181 -0.052348 0.600036
v 0.558387 -0.033355 0.558387
v 0.619074 -0.011582 0.281051
v 0.600036 -0.052348 0.272181
v 0.694786 -0.033355 0.000000
v 0.226034 0.070717 0.508149
v 0.508149 0.070717 0.226033
v 0.474656 0.030740 0.474656
v 0.627321 0.030740 0.000000
v 0.528033 0.105161 0.000000
v 0.368705 0.105161 0.368705
v 0.395630 0.139946 0.182784
v 0.182784 0.139946 0.395630
v 0.313870 -0.062031 0.313870
v 0.395935 -0.062547 0.000000
v 0.191358 0.105161 0.461980
v 0.461980 0.105161 0.191358
v 0.567997 0.030740 0.248404
v 0.248404 0.030740 0.567997
v 0.646172 -0.033355 0.293917
v 0.293917 -0.033355 0.646172
v 0.000000 -0.070292 0.000000
v 0.000000 0.068941 0.575990
v 0.000000 -0.010440 0.666516
v 0.000000 0.141724 0.446528
v 0.000000 -0.050712 0.655716
v 0.000000 -0.033355 0.694786
v 0.000000 0.030740 0.627321
v 0.000000 0.105161 0.528033
v 0.000000 -0.062547 0.395935
v 0.184803 0.615181 0.199191
v 0.000000 0.615537 0.275938
v 0.275938 0.615537 0.000000
v 0.226976 0.808724 0.242439
v 0.315227 1.026326 0.315227
v 0.322324 0.809360 0.000000
v 0.000000 0.809360 0.322324
v 0.311262 1.164971 0.311262
v 0.000000 1.028103 0.424693
v 0.479995 1.028103 0.000000
v 0.000000 1.883871 0.434790
v 0.288367 1.678568 0.000000
v 0.000000 1.025996 0.000000
v 0.126889 1.120250 0.000000
v 0.000000 1.123544 0.095720
v 0.168231 0.378146 0.172744
v 0.242332 0.378339 0.000000
v 0.000000 0.378339 0.242332
vn -0.119600 -0.904300 -0.409800
vn -0.377000 -0.923800 -0.066800
vn -0.231500 0.862500 -0.449900
vn -0.132100 0.751000 -0.646900
vn -0.498000 0.846900 -0.186300
vn -0.424100 0.895200 -0.136800
vn -0.225900 0.872900 -0.432500
vn -0.006800 -0.999800 -0.019600
vn -0.019600 -0.999800 -0.006800
vn -0.035800 -0.999300 -0.013900
vn -0.035400 -0.999300 -0.010900
vn -0.045500 -0.999000 -0.003300
vn -0.003300 -0.999000 -0.045500
vn -0.010900 -0.999300 -0.035400
vn -0.013900 -0.999300 -0.035800
vn -0.136800 0.895200 -0.424100
vn -0.449900 0.862500 -0.231500
vn -0.549800 0.817200 -0.172900
vn -0.432500 0.872900 -0.225900
vn -0.172900 0.817200 -0.549800
vn -0.646900 0.751000 -0.132100
vn -0.549600 0.822900 -0.144200
vn -0.440800 0.875000 -0.200100
vn -0.186300 0.846900 -0.498000
vn -0.200100 0.875000 -0.440800
vn -0.144200 0.822900 -0.549600
vn -0.610000 0.785600 -0.103500
vn -0.548000 0.816000 -0.184000
vn -0.409800 -0.904300 -0.119600
vn -0.184000 0.816000 -0.548000
vn -0.103500 0.785600 -0.610000
vn -0.066800 -0.923800 -0.377000
vn -0.342300 0.407000 -0.846900
vn -0.344000 -0.247100 -0.905900
vn -0.843600 0.403200 -0.354500
vn -0.784300 -0.502700 -0.363600
vn -0.893100 -0.246200 -0.376600
vn -0.894700 0.223700 -0.386600
vn -0.299500 -0.407000 -0.862900
vn -0.344100 -0.004400 -0.938900
vn -0.372200 0.650100 0.662500
vn 0.849100 0.245600 -0.467700
vn 0.580100 0.781000 -0.231400
vn -0.500600 0.352600 0.790600
vn 0.002000 -1.000000 0.002000
vn 0.119600 -0.904300 -0.409800
vn 0.377000 -0.923800 -0.066800
vn 0.231500 0.862500 -0.449900
vn 0.132100 0.751000 -0.646900
vn 0.498000 0.846900 -0.186300
vn 0.424100 0.895200 -0.136800
vn 0.225900 0.872900 -0.432500
vn 0.006800 -0.999800 -0.019600
vn 0.019600 -0.999800 -0.006800
vn 0.035800 -0.999300 -0.013900
vn 0.035400 -0.999300 -0.010900
vn 0.045500 -0.999000 -0.003300
vn 0.003300 -0.999000 -0.045500
vn 0.010900 -0.999300 -0.035400
vn 0.013900 -0.999300 -0.035800
vn 0.136800 0.895200 -0.424100
vn 0.449900 0.862500 -0.231500
vn 0.549800 0.817200 -0.172900
vn 0.432500 0.872900 -0.225900
vn 0.172900 0.817200 -0.549800
vn 0.646900 0.751000 -0.132100
vn 0.549600 0.822900 -0.144200
vn 0.440800 0.875000 -0.200100
vn 0.186300 0.846900 -0.498000
vn 0.200100 0.875000 -0.440800
vn 0.144200 0.822900 -0.549600
vn 0.610000 0.785600 -0.103500
vn 0.548000 0.816000 -0.184000
vn 0.409800 -0.904300 -0.119600
vn 0.184000 0.816000 -0.548000
vn 0.103500 0.785600 -0.610000
vn 0.066800 -0.923800 -0.377000
vn 0.342300 0.407000 -0.846900
vn 0.344000 -0.247100 -0.905900
vn 0.843600 0.403200 -0.354500
vn 0.784300 -0.502700 -0.363600
vn 0.893100 -0.246200 -0.376600
vn 0.894700 0.223700 -0.386600
vn 0.299500 -0.407000 -0.862900
vn 0.344100 -0.004400 -0.938900
vn 0.372200 0.650100 0.662500
vn -0.849100 0.245600 -0.467700
vn -0.580100 0.781000 -0.231400
vn 0.500600 0.352600 0.790600
vn -0.002000 -1.000000 0.002000
vn -0.119600 -0.904300 0.409800
vn -0.377000 -0.923800 0.066800
vn -0.231500 0.862500 0.449900
vn -0.132100 0.751000 0.646900
vn -0.498000 0.846900 0.186300
vn -0.424100 0.895200 0.136800
vn -0.225900 0.872900 0.432500
vn -0.006800 -0.999800 0.019600
vn -0.019600 -0.999800 0.006800
vn -0.035800 -0.999300 0.013900
vn -0.035400 -0.999300 0.010900
vn -0.045500 -0.999000 0.003300
vn -0.003300 -0.999000 0.045500
vn -0.010900 -0.999300 0.035400
vn -0.013900 -0.999300 0.035800
vn -0.136800 0.895200 0.424100
vn -0.449900 0.862500 0.231500
vn -0.549800 0.817200 0.172900
vn -0.432500 0.872900 0.225900
vn -0.172900 0.817200 0.549800
vn -0.646900 0.751000 0.132100
vn -0.549600 0.822900 0.144200
vn -0.440800 0.875000 0.200100
vn -0.186300 0.846900 0.498000
vn -0.200100 0.875000 0.440800
vn -0.144200 0.822900 0.549600
vn -0.610000 0.785600 0.103500
vn -0.548000 0.816000 0.184000
vn -0.409800 -0.904300 0.119600
vn -0.184000 0.816000 0.548000
vn -0.103500 0.785600 0.610000
vn -0.066800 -0.923800 0.377000
vn -0.342300 0.407000 0.846900
vn -0.344000 -0.247100 0.905900
vn -0.843600 0.403200 0.354500
vn -0.784300 -0.502700 0.363600
vn -0.893100 -0.246200 0.376600
vn -0.894700 0.223700 0.386600
vn -0.299500 -0.407000 0.862900
vn -0.344100 -0.004400 0.938900
vn -0.372200 0.650100 -0.662500
vn 0.849100 0.245600 0.467700
vn 0.580100 0.781000 0.231400
vn -0.500600 0.352600 -0.790600
vn 0.002000 -1.000000 -0.002000
vn 0.119600 -0.904300 0.409800
vn 0.377000 -0.923800 0.066800
vn 0.231500 0.862500 0.449900
vn 0.132100 0.751000 0.646900
vn 0.498000 0.846900 0.186300
vn 0.424100 0.895200 0.136800
vn 0.225900 0.872900 0.432500
vn 0.006800 -0.999800 0.019600
vn 0.019600 -0.999800 0.006800
vn 0.035800 -0.999300 0.013900
vn 0.035400 -0.999300 0.010900
vn 0.045500 -0.999000 0.003300
vn 0.003300 -0.999000 0.045500
vn 0.010900 -0.999300 0.035400
vn 0.013900 -0.999300 0.035800
vn 0.136800 0.895200 0.424100
vn 0.449900 0.862500 0.231500
vn 0.549800 0.817200 0.172900
vn 0.432500 0.872900 0.225900
vn 0.172900 0.817200 0.549800
vn 0.646900 0.751000 0.132100
vn 0.549600 0.822900 0.144200
vn 0.440800 0.875000 0.200100
vn 0.186300 0.846900 0.498000
vn 0.200100 0.875000 0.440800
vn 0.144200 0.822900 0.549600
vn 0.610000 0.785600 0.103500
vn 0.548000 0.816000 0.184000
vn 0.409800 -0.904300 0.119600
vn 0.184000 0.816000 0.548000
vn 0.103500 0.785600 0.610000
vn 0.066800 -0.923800 0.377000
vn 0.342300 0.407000 0.846900
vn 0.344000 -0.247100 0.905900
vn 0.843600 0.403200 0.354500
vn 0.784300 -0.502700 0.363600
vn 0.893100 -0.246200 0.376600
vn 0.894700 0.223700 0.386600
vn 0.299500 -0.407000 0.862900
vn 0.344100 -0.004400 0.938900
vn 0.372200 0.650100 -0.662500
vn -0.849100 0.245600 0.467700
vn -0.580100 0.781000 0.231400
vn 0.500600 0.352600 -0.790600
vn -0.002000 -1.000000 -0.002000
usemtl None
s off
f 22//1 6//1 4//1 7//1
f 21//2 9//2 76//2 82//2
f 10//3 1//3 13//3 17//3
f 20//4 55//4 51//4 5//4
f 19//5 12//5 2//5 8//5
f 18//6 87//6 73//6 14//6
f 17//7 13//7 3//7 15//7
f 140//8 16//8 57//8
f 140//9 92//9 16//9
f 16//10 9//10 4//10
f 16//11 92//11 9//11
f 92//12 76//12 9//12
f 57//13 6//13 53//13
f 57//14 16//14 6//14
f 16//15 4//15 6//15
f 56//16 17//16 15//16 52//16
f 1//17 11//17 18//17 13//17
f 11//18 70//18 87//18 18//18
f 13//19 18//19 14//19 3//19
f 50//20 10//20 17//20 56//20
f 86//21 19//21 8//21 72//21
f 70//22 11//22 19//22 86//22
f 11//23 1//23 12//23 19//23
f 12//24 20//24 5//24 2//24
f 1//25 10//25 20//25 12//25
f 10//26 50//26 55//26 20//26
f 8//27 21//27 82//27 72//27
f 2//28 7//28 21//28 8//28
f 7//29 4//29 9//29 21//29
f 5//30 22//30 7//30 2//30
f 51//31 54//31 22//31 5//31
f 54//32 53//32 6//32 22//32
f 15//33 3//33 27//33 23//33 59//33 68//33 52//33
f 59//34 23//34 24//34 62//34
f 3//35 14//35 73//35 109//35 100//35 23//35 27//35
f 24//36 103//36 105//36 25//36
f 23//37 100//37 103//37 24//37
f 25//38 105//38 106//38 26//38
f 62//39 24//39 25//39 64//39
f 64//40 25//40 26//40 65//40
f 161//41 66//41 26//41
f 26//42 106//42 107//42
f 107//43 161//43 26//43
f 65//44 26//44 66//44
f 109//45 27//45 68//45
f 49//46 34//46 31//46 33//46
f 48//47 123//47 117//47 36//47
f 37//48 44//48 40//48 28//48
f 47//49 32//49 51//49 55//49
f 46//50 35//50 29//50 39//50
f 45//51 41//51 114//51 128//51
f 44//52 42//52 30//52 40//52
f 140//53 57//53 43//53
f 140//54 43//54 133//54
f 43//55 31//55 36//55
f 43//56 36//56 133//56
f 133//57 36//57 117//57
f 57//58 53//58 33//58
f 57//59 33//59 43//59
f 43//60 33//60 31//60
f 56//61 52//61 42//61 44//61
f 28//62 40//62 45//62 38//62
f 38//63 45//63 128//63 111//63
f 40//64 30//64 41//64 45//64
f 50//65 56//65 44//65 37//65
f 127//66 113//66 35//66 46//66
f 111//67 127//67 46//67 38//67
f 38//68 46//68 39//68 28//68
f 39//69 29//69 32//69 47//69
f 28//70 39//70 47//70 37//70
f 37//71 47//71 55//71 50//71
f 35//72 113//72 123//72 48//72
f 29//73 35//73 48//73 34//73
f 34//74 48//74 36//74 31//74
f 32//75 29//75 34//75 49//75
f 51//76 32//76 49//76 54//76
f 54//77 49//77 33//77 53//77
f 42//78 52//78 68//78 59//78 58//78 67//78 30//78
f 59//79 62//79 60//79 58//79
f 30//80 67//80 58//80 151//80 165//80 114//80 41//80
f 60//81 61//81 158//81 154//81
f 58//82 60//82 154//82 151//82
f 61//83 63//83 160//83 158//83
f 62//84 64//84 61//84 60//84
f 64//85 65//85 63//85 61//85
f 161//86 63//86 66//86
f 63//87 162//87 160//87
f 162//88 63//88 161//88
f 65//89 66//89 63//89
f 165//90 68//90 67//90
f 98//91 79//91 75//91 78//91
f 97//92 82//92 76//92 81//92
f 83//93 93//93 88//93 69//93
f 96//94 77//94 142//94 146//94
f 95//95 80//95 71//95 85//95
f 94//96 89//96 73//96 87//96
f 93//97 90//97 74//97 88//97
f 140//98 148//98 91//98
f 140//99 91//99 92//99
f 91//100 75//100 81//100
f 91//101 81//101 92//101
f 92//102 81//102 76//102
f 148//103 144//103 78//103
f 148//104 78//104 91//104
f 91//105 78//105 75//105
f 147//106 143//106 90//106 93//106
f 69//107 88//107 94//107 84//107
f 84//108 94//108 87//108 70//108
f 88//109 74//109 89//109 94//109
f 141//110 147//110 93//110 83//110
f 86//111 72//111 80//111 95//111
f 70//112 86//112 95//112 84//112
f 84//113 95//113 85//113 69//113
f 85//114 71//114 77//114 96//114
f 69//115 85//115 96//115 83//115
f 83//116 96//116 146//116 141//116
f 80//117 72//117 82//117 97//117
f 71//118 80//118 97//118 79//118
f 79//119 97//119 81//119 75//119
f 77//120 71//120 79//120 98//120
f 142//121 77//121 98//121 145//121
f 145//122 98//122 78//122 144//122
f 90//123 143//123 166//123 150//123 99//123 108//123 74//123
f 150//124 155//124 101//124 99//124
f 74//125 108//125 99//125 100//125 109//125 73//125 89//125
f 101//126 102//126 105//126 103//126
f 99//127 101//127 103//127 100//127
f 102//128 104//128 106//128 105//128
f 155//129 157//129 102//129 101//129
f 157//130 159//130 104//130 102//130
f 161//131 104//131 163//131
f 104//132 107//132 106//132
f 107//133 104//133 161//133
f 159//134 163//134 104//134
f 109//135 166//135 108//135
f 139//136 119//136 116//136 120//136
f 138//137 122//137 117//137 123//137
f 124//138 110//138 129//138 134//138
f 137//139 146//139 142//139 118//139
f 136//140 126//140 112//140 121//140
f 135//141 128//141 114//141 130//141
f 134//142 129//142 115//142 131//142
f 140//143 132//143 148//143
f 140//144 133//144 132//144
f 132//145 122//145 116//145
f 132//146 133//146 122//146
f 133//147 117//147 122//147
f 148//148 119//148 144//148
f 148//149 132//149 119//149
f 132//150 116//150 119//150
f 147//151 134//151 131//151 143//151
f 110//152 125//152 135//152 129//152
f 125//153 111//153 128//153 135//153
f 129//154 135//154 130//154 115//154
f 141//155 124//155 134//155 147//155
f 127//156 136//156 121//156 113//156
f 111//157 125//157 136//157 127//157
f 125//158 110//158 126//158 136//158
f 126//159 137//159 118//159 112//159
f 110//160 124//160 137//160 126//160
f 124//161 141//161 146//161 137//161
f 121//162 138//162 123//162 113//162
f 112//163 120//163 138//163 121//163
f 120//164 116//164 122//164 138//164
f 118//165 139//165 120//165 112//165
f 142//166 145//166 139//166 118//166
f 145//167 144//167 119//167 139//167
f 131//168 115//168 164//168 149//168 150//168 166//168 143//168
f 150//169 149//169 152//169 155//169
f 115//170 130//170 114//170 165//170 151//170 149//170 164//170
f 152//171 154//171 158//171 153//171
f 149//172 151//172 154//172 152//172
f 153//173 158//173 160//173 156//173
f 155//174 152//174 153//174 157//174
f 157//175 153//175 156//175 159//175
f 161//176 163//176 156//176
f 156//177 160//177 162//177
f 162//178 161//178 156//178
f 159//179 156//179 163//179
f 165//180 164//180 166//180
